<svg fill="none" height="76" viewBox="0 0 150 76" width="150" xmlns="http://www.w3.org/2000/svg">
<path d="M41.4184 8.22781C41.977 8.22781 42.5195 8.3663 43.0295 8.65142C43.5476 8.93655 43.9524 9.33572 44.2439 9.86523C44.5353 10.3947 44.6892 10.9405 44.6892 11.5189C44.6892 12.0973 44.5434 12.635 44.252 13.1564C43.9605 13.6777 43.5638 14.085 43.0457 14.3702C42.5276 14.6634 41.9851 14.8101 41.4184 14.8101C40.8517 14.8101 40.3093 14.6634 39.7912 14.3702C39.273 14.0769 38.8682 13.6777 38.5849 13.1564C38.2934 12.635 38.1477 12.0892 38.1477 11.5189C38.1477 10.9487 38.2934 10.3947 38.593 9.86523C38.8925 9.33572 39.2892 8.93655 39.8074 8.65142C40.3255 8.3663 40.8598 8.22781 41.4184 8.22781ZM41.4265 8.87138C40.9732 8.87138 40.5441 8.98542 40.1312 9.21352C39.7183 9.44162 39.3945 9.76747 39.1516 10.1911C38.9168 10.6147 38.7954 11.0627 38.7954 11.5271C38.7954 11.9914 38.9087 12.4313 39.1435 12.8468C39.3783 13.2623 39.7021 13.5881 40.115 13.8244C40.5279 14.0606 40.9651 14.1747 41.4184 14.1747C41.8718 14.1747 42.309 14.0606 42.73 13.8244C43.1428 13.5881 43.4667 13.2623 43.7015 12.8468C43.9362 12.4313 44.0496 11.9914 44.0496 11.5271C44.0496 11.0627 43.9281 10.6228 43.6934 10.1911C43.4586 9.76747 43.1267 9.44162 42.7138 9.21352C42.3009 8.98542 41.8637 8.87138 41.4184 8.87138H41.4265ZM39.945 13.2786V9.78377H40.6493C41.3132 9.78377 41.6775 9.78377 41.7585 9.79191C41.9932 9.80821 42.1713 9.85708 42.3009 9.9304C42.4304 10.0037 42.5357 10.1178 42.6247 10.2644C42.7138 10.411 42.7542 10.5821 42.7542 10.7613C42.7542 10.9405 42.6733 11.2257 42.5114 11.4049C42.3495 11.5841 42.1147 11.6982 41.8232 11.7389C41.9285 11.7796 42.0094 11.8204 42.0661 11.8692C42.1228 11.9181 42.2037 12.0077 42.3009 12.1381C42.3252 12.1706 42.4142 12.3173 42.5599 12.5617L42.9728 13.2704H42.0985L41.807 12.7002C41.6127 12.3173 41.4508 12.081 41.3213 11.9833C41.1917 11.8855 41.0298 11.8366 40.8355 11.8366H40.6493V13.2704H39.945V13.2786ZM40.6493 11.2908H40.9327C41.3375 11.2908 41.5884 11.2745 41.6937 11.242C41.7908 11.2094 41.8718 11.1524 41.9285 11.079C41.9851 10.9976 42.0175 10.908 42.0175 10.8102C42.0175 10.7125 41.9932 10.6228 41.9366 10.5495C41.8799 10.4762 41.7989 10.4192 41.7018 10.3866C41.5965 10.354 41.3456 10.3377 40.9489 10.3377H40.6655V11.2908H40.6493Z" fill="white"></path>
<path d="M130.683 21.5308V19.0706H129.769V18.5574H132.165V19.0706H131.274V21.5308H130.675H130.683ZM132.529 21.5308V18.5574H133.46L133.995 20.6021L134.537 18.5574H135.468V21.5308H134.901V19.1602L134.262 21.5308H133.719L133.088 19.1602V21.5308H132.529Z" fill="white"></path>
<path d="M4.28258 42.638C5.18122 42.638 5.95033 41.9944 6.12844 41.0983C6.5899 38.7115 7.32662 36.2187 8.33861 33.6281C9.86063 29.7586 11.9898 25.7017 14.6696 21.5634C16.8312 18.2397 19.0008 15.3885 20.7253 13.2948C21.0815 12.8631 21.7372 12.8631 22.0935 13.2948C23.8098 15.3966 25.9876 18.2397 28.1492 21.5634C30.837 25.7017 32.9662 29.7586 34.4801 33.6281C35.4921 36.2105 36.2288 38.7115 36.6903 41.0983C36.8603 41.9944 37.6294 42.638 38.5361 42.638C39.7019 42.638 40.6006 41.5708 40.382 40.4222C37.5889 25.7913 26.1252 12.0322 22.5063 7.99156C21.9154 7.33171 20.8953 7.33171 20.3124 7.99156C16.7016 12.0322 5.2298 25.7913 2.43673 40.4222C2.21814 41.579 3.11678 42.638 4.28258 42.638Z" fill="white"></path>
<path d="M37.0061 49.4321C36.4313 52.7639 34.8203 55.8269 32.3267 58.2138C29.3717 61.0488 25.4695 62.6129 21.3892 62.6129C17.1632 62.6129 13.1881 60.951 10.2008 57.945C7.86916 55.5988 6.36333 52.658 5.80472 49.4646C5.65089 48.5604 4.88179 47.9005 3.97505 47.9005H3.94267C2.79306 47.9005 1.91061 48.9433 2.11301 50.0838C3.71599 59.3462 11.7471 66.3846 21.4054 66.3846C31.0638 66.3846 39.0949 59.338 40.6978 50.0756C40.8922 48.9351 40.0178 47.8924 38.8682 47.8924H38.8358C37.9372 47.8924 37.16 48.536 37.0061 49.4239V49.4321Z" fill="white"></path>
<path d="M73.0164 18.924C72.9274 21.1072 72.8788 23.4534 72.8788 25.9624C72.8788 28.4715 72.9193 30.8177 73.0164 33.0009H68.4908V27.7302H61.3989V33.0009H56.8733C56.9785 30.4918 57.0271 28.1457 57.0271 25.9624C57.0271 23.7792 56.9785 21.4331 56.8733 18.924H61.3989V24.1947H68.4908V18.924H73.0164Z" fill="white"></path>
<path d="M86.9008 29.7831C86.9008 30.223 86.9494 30.5325 87.0547 30.7118C87.1599 30.891 87.3623 31.0213 87.6699 31.1028L87.5971 32.9276C87.1842 32.9927 86.828 33.0416 86.5284 33.0661C86.2289 33.0905 85.8241 33.1068 85.3221 33.1068C84.213 33.1068 83.4844 32.8624 83.1282 32.3573C82.7719 31.8604 82.5857 31.225 82.5857 30.4511V29.9623C82.2133 31.0213 81.6709 31.8115 80.9585 32.3247C80.246 32.8461 79.3393 33.0986 78.2302 33.0986C77.121 33.0986 75.9795 32.838 75.3319 32.3247C74.6842 31.8115 74.3604 31.0376 74.3604 30.0193C74.3604 29.001 74.6356 28.5204 75.1861 28.0398C75.7366 27.5591 76.5948 27.2333 77.7525 27.0541C76.7729 26.3535 75.8014 25.7506 74.8218 25.2293C75.5909 24.2517 76.4734 23.5022 77.4611 22.989C78.4488 22.4758 79.6469 22.2233 81.0637 22.2233C82.4805 22.2233 84.5125 22.655 85.4679 23.5104C86.4232 24.3658 86.9008 25.6936 86.9008 27.4777V29.7831ZM79.736 25.9624C79.2341 26.1824 78.7888 26.5164 78.384 26.9482C79.1531 26.8585 80.1165 26.8097 81.2742 26.8097C82.4319 26.8097 82.0838 26.7526 82.2781 26.6386C82.4724 26.5245 82.5695 26.3779 82.5695 26.1905C82.5695 26.0032 82.4724 25.9054 82.2781 25.7914C82.0838 25.6773 81.8166 25.6284 81.4685 25.6284C80.8127 25.6284 80.2379 25.7425 79.736 25.9543V25.9624ZM81.3957 29.5224C82.5938 28.9766 82.5938 27.9257 82.5938 27.9257C82.2862 28.0805 81.9462 28.2027 81.5738 28.2842C81.2013 28.3656 80.748 28.4471 80.2218 28.5285L79.5255 28.6426C78.805 28.7892 78.4488 29.0336 78.4488 29.3758C78.4488 29.7179 78.7807 29.9379 79.4526 29.9379C80.1246 29.9379 80.8127 29.7831 81.3957 29.5224Z" fill="white"></path>
<path d="M99.5061 22.9401C100.17 23.4208 100.696 24.0643 101.069 24.8871C101.441 25.7099 101.627 26.606 101.627 27.5917C101.627 28.5774 101.441 29.4735 101.069 30.337C100.696 31.2005 100.17 31.8848 99.498 32.4144C98.826 32.9357 98.0569 33.1964 97.1988 33.1964C96.3406 33.1964 95.3367 32.9846 94.6243 32.5691C93.9118 32.1537 93.3856 31.502 93.0375 30.6222C93.0375 31.3553 93.0618 32.5447 93.1103 34.1658C93.1589 35.7462 93.1832 36.8541 93.1832 37.4977H88.8276C88.9005 35.0945 88.941 32.5773 88.941 29.9542C88.941 27.331 88.9005 24.8138 88.8276 22.4106H92.5274L93.0861 24.8301C93.4423 23.9259 93.9847 23.266 94.7052 22.8424C95.4258 22.4269 96.2677 22.2151 97.2473 22.2151C98.2269 22.2151 98.8341 22.4514 99.498 22.932L99.5061 22.9401ZM96.6401 29.1477C97.0287 28.7811 97.2311 28.3004 97.2311 27.7058C97.2311 27.1111 97.053 26.5082 96.6887 26.0928C96.3325 25.6773 95.8386 25.4737 95.2234 25.4737C94.6081 25.4737 93.9847 25.6447 93.6204 25.9869C93.2642 26.329 93.078 26.8993 93.078 27.7058C93.078 28.5122 93.1913 28.5367 93.4261 28.8381C93.6609 29.1395 93.9361 29.3595 94.2519 29.498C94.5757 29.6364 94.8833 29.7016 95.1748 29.7016C95.7496 29.7016 96.2353 29.5142 96.632 29.1477H96.6401Z" fill="white"></path>
<path d="M113.641 22.9401C114.305 23.4208 114.831 24.0643 115.204 24.8871C115.576 25.7099 115.762 26.606 115.762 27.5917C115.762 28.5774 115.576 29.4735 115.204 30.337C114.831 31.2005 114.305 31.8848 113.633 32.4144C112.961 32.9357 112.192 33.1964 111.334 33.1964C110.476 33.1964 109.472 32.9846 108.76 32.5691C108.047 32.1537 107.521 31.502 107.173 30.6222C107.173 31.3553 107.197 32.5447 107.246 34.1658C107.294 35.7462 107.318 36.8541 107.318 37.4977H102.963C103.036 35.0945 103.076 32.5773 103.076 29.9542C103.076 27.331 103.036 24.8138 102.963 22.4106H106.663L107.221 24.8301C107.578 23.9259 108.12 23.266 108.84 22.8424C109.561 22.4269 110.403 22.2151 111.383 22.2151C112.362 22.2151 112.969 22.4514 113.633 22.932L113.641 22.9401ZM110.783 29.1477C111.172 28.7811 111.374 28.3004 111.374 27.7058C111.374 27.1111 111.196 26.5082 110.832 26.0928C110.476 25.6773 109.982 25.4737 109.367 25.4737C108.751 25.4737 108.128 25.6447 107.764 25.9869C107.408 26.329 107.221 26.8993 107.221 27.7058C107.221 28.5122 107.335 28.5367 107.569 28.8381C107.804 29.1395 108.079 29.3595 108.395 29.498C108.719 29.6364 109.027 29.7016 109.318 29.7016C109.893 29.7016 110.379 29.5142 110.775 29.1477H110.783Z" fill="white"></path>
<path d="M128.635 22.4188L128.19 23.543C126.967 26.8096 125.688 29.9704 124.36 33.0009C123.664 34.5487 122.668 35.7951 121.357 36.7319C120.045 37.6687 118.402 38.1168 116.426 38.0761C116.183 37.0007 115.981 36.1698 115.819 35.567C115.657 34.9641 115.447 34.3613 115.196 33.7585C115.9 33.9296 116.564 34.011 117.179 34.011C118.183 34.011 118.977 33.7992 119.568 33.3675C119.106 31.9826 118.564 30.4999 117.932 28.9114C117.301 27.3229 116.394 25.1559 115.196 22.4188H119.762C119.916 23.0623 120.126 23.8118 120.393 24.6672C120.66 25.5225 120.936 26.3372 121.203 27.1274C121.276 27.3717 121.405 27.7465 121.575 28.2434C121.745 28.7403 121.883 29.1558 121.988 29.4979L122.49 27.9664C123.454 25.1641 124.02 23.3149 124.206 22.4188H128.635Z" fill="white"></path>
<path d="M73.0164 37.7421C72.9274 39.9253 72.8788 42.2714 72.8788 44.7805C72.8788 47.2896 72.9193 49.6357 73.0164 51.819H68.4908V46.5483H61.3989V51.819H56.8733C56.9785 49.3099 57.0271 46.9637 57.0271 44.7805C57.0271 42.5973 56.9785 40.2511 56.8733 37.7421H61.3989V43.0128H68.4908V37.7421H73.0164Z" fill="white"></path>
<path d="M87.2328 41.2287L86.7875 42.3529C85.5651 45.6196 84.2859 48.7722 82.9582 51.8108C82.262 53.3586 81.2662 54.605 79.9546 55.5418C78.6431 56.4787 76.9997 56.9267 75.0243 56.886C74.7814 55.8107 74.579 54.9797 74.4171 54.3769C74.2552 53.7741 74.0447 53.1712 73.7937 52.5684C74.498 52.7395 75.1619 52.821 75.7772 52.821C76.7811 52.821 77.5745 52.6091 78.1655 52.1855C77.704 50.8007 77.1535 49.318 76.5301 47.7295C75.8986 46.141 74.9919 43.974 73.7937 41.2368H78.3598C78.5136 41.8804 78.7241 42.6299 78.9912 43.4852C79.2584 44.3406 79.5337 45.1552 79.8008 45.9454C79.8818 46.1898 80.0032 46.5646 80.1732 47.0615C80.3432 47.5584 80.4809 47.9739 80.5861 48.3079L81.0881 46.7764C82.0515 43.974 82.6263 42.1248 82.8044 41.2287H87.2328Z" fill="white"></path>
<path d="M99.5224 44.2754C99.5224 46.8741 99.5628 49.3913 99.6357 51.8189H95.2801L95.3368 49.4972C94.9644 50.3608 94.422 50.9962 93.7176 51.4035C93.0133 51.8108 92.1794 52.0145 91.216 52.0145C90.2526 52.0145 89.6292 51.7782 88.9654 51.2976C88.3015 50.8169 87.7753 50.1734 87.4029 49.3506C87.0304 48.5278 86.8442 47.6317 86.8442 46.646C86.8442 45.6603 87.0304 44.7642 87.4029 43.9007C87.7753 43.0372 88.3015 42.3529 88.9735 41.8234C89.6454 41.302 90.4145 41.0413 91.2727 41.0413C92.1308 41.0413 93.1347 41.2531 93.8472 41.6686C94.5596 42.0922 95.0858 42.7358 95.4339 43.6156C95.4339 42.8824 95.4097 41.693 95.3611 40.0719C95.3125 38.4915 95.2882 37.3836 95.2882 36.7401H99.6438C99.5709 39.1432 99.5304 41.6604 99.5304 44.2836L99.5224 44.2754ZM94.7863 48.2183C95.183 47.8598 95.3854 47.2977 95.3854 46.5238C95.3854 45.7499 95.183 45.3345 94.7863 45.0086C94.3896 44.6827 93.8876 44.5198 93.2804 44.5198C92.6733 44.5198 92.2199 44.7072 91.8232 45.0738C91.4265 45.4404 91.2322 45.921 91.2322 46.5157C91.2322 47.1104 91.4103 47.7132 91.7746 48.1287C92.1308 48.5441 92.6247 48.7478 93.24 48.7478C93.8552 48.7478 94.3815 48.5686 94.7782 48.2183H94.7863Z" fill="white"></path>
<path d="M105.651 44.0962C106.193 42.1411 107.529 41.1717 109.674 41.1717C111.82 41.1717 110.403 41.1961 110.751 41.2531L110.136 45.5951C109.213 45.2448 108.452 45.0738 107.861 45.0738C107.27 45.0738 106.59 45.2937 106.242 45.7336C105.894 46.1735 105.724 46.7601 105.724 47.5014V47.4851L105.708 48.7641C105.708 49.6846 105.732 50.7029 105.78 51.8271H101.174C101.279 49.9697 101.328 48.2101 101.328 46.5564C101.328 44.9027 101.279 43.1349 101.174 41.245C102.024 41.2857 102.672 41.302 103.117 41.302C103.562 41.302 104.242 41.2857 105.06 41.245L105.635 44.1125L105.651 44.0962Z" fill="white"></path>
<path d="M123.486 48.593C123.486 49.0329 123.535 49.3425 123.64 49.5217C123.745 49.7009 123.948 49.8312 124.255 49.9127L124.182 51.7375C123.769 51.8027 123.413 51.8434 123.114 51.876C122.814 51.9004 122.409 51.9167 121.907 51.9167C120.798 51.9167 120.07 51.6723 119.713 51.1672C119.357 50.6703 119.171 50.0349 119.171 49.261V48.7722C118.799 49.8312 118.256 50.6214 117.544 51.1347C116.831 51.6479 115.925 51.9086 114.815 51.9086C113.706 51.9086 112.565 51.6479 111.917 51.1347C111.269 50.6214 110.946 49.8475 110.946 48.8292C110.946 47.8109 111.221 47.3303 111.771 46.8497C112.322 46.369 113.18 46.0432 114.338 45.864C113.358 45.1634 112.387 44.5605 111.407 44.0392C112.176 43.0616 113.059 42.3121 114.046 41.7989C115.034 41.2857 116.24 41.0332 117.649 41.0332C119.058 41.0332 121.098 41.4649 122.053 42.3203C123.008 43.1757 123.486 44.5035 123.486 46.2876V48.593ZM116.321 44.7805C115.819 45.0004 115.374 45.3344 114.969 45.7662C115.738 45.6766 116.702 45.6277 117.859 45.6277C119.017 45.6277 118.669 45.5707 118.863 45.4566C119.058 45.3426 119.155 45.196 119.155 45.0086C119.155 44.8212 119.058 44.7235 118.863 44.6094C118.669 44.4954 118.402 44.4465 118.054 44.4465C117.398 44.4465 116.823 44.5524 116.321 44.7723V44.7805ZM117.981 48.3323C119.074 47.8109 119.179 46.7356 119.179 46.7356C118.871 46.8904 118.531 47.0126 118.159 47.0941C117.787 47.1755 117.333 47.257 116.807 47.3384L116.111 47.4525C115.39 47.5991 115.034 47.8435 115.034 48.1857C115.034 48.5278 115.366 48.7478 116.038 48.7478C116.71 48.7478 117.406 48.6093 117.981 48.3323Z" fill="white"></path>
<path d="M134.14 44.6991C132.958 44.6176 131.881 44.5606 130.902 44.528L130.886 46.5809C130.886 47.2814 131.04 47.8273 131.339 48.2183C131.639 48.6093 132.173 48.813 132.95 48.813C133.727 48.813 133.525 48.7885 133.8 48.7315C133.752 49.2121 133.727 49.6928 133.727 50.1815C133.727 50.6703 133.744 50.9473 133.768 51.7701C133.201 51.876 132.732 51.9412 132.343 51.9656C131.954 51.99 131.461 52.0063 130.837 52.0063C129.331 52.0063 128.271 51.6397 127.647 50.9066C127.024 50.1734 126.716 49.1551 126.716 47.8517L126.733 44.5769C126.125 44.6013 125.502 44.642 124.846 44.6909V41.2613C125.51 41.2613 126.077 41.0495 126.538 40.6177C127 40.1941 127.275 39.6809 127.364 39.0862H132.602C131.946 39.9905 131.218 40.7155 130.424 41.2531H134.14V44.6828V44.6991Z" fill="white"></path>
<path d="M145.49 46.9719H139.208C139.313 47.5421 139.564 48.0064 139.969 48.3567C140.374 48.707 140.949 48.8863 141.694 48.8863C142.438 48.8863 142.738 48.7804 143.216 48.5686C143.693 48.3567 144.074 48.0553 144.349 47.6643C145.207 48.0879 146.357 48.5523 147.782 49.041C147.385 49.9453 146.664 50.6703 145.612 51.1998C144.568 51.7375 143.199 52.0063 141.515 52.0063C139.831 52.0063 137.718 51.5012 136.674 50.4829C135.63 49.4646 135.104 48.1368 135.104 46.4831C135.104 44.8294 135.622 43.5585 136.666 42.5484C137.702 41.5382 139.321 41.0332 141.524 41.0332C143.726 41.0332 143.968 41.2531 144.932 41.693C145.895 42.1329 146.632 42.7439 147.15 43.526C147.66 44.308 147.919 45.2041 147.919 46.2143C147.919 47.2244 147.903 46.8008 147.879 46.9719H145.49ZM140.406 44.1695C139.208 44.9027 139.208 45.7662 139.208 45.7662C139.516 45.6114 139.856 45.4892 140.228 45.4078C140.601 45.3263 141.054 45.2448 141.58 45.1634L142.276 45.0493C142.997 44.9027 143.353 44.6583 143.353 44.3162C143.353 43.974 143.021 43.7541 142.349 43.7541C141.677 43.7541 140.949 43.8355 140.406 44.1695Z" fill="white"></path>
</svg>