<svg width="184" height="41" viewBox="0 0 184 41" fill="none" xmlns="http://www.w3.org/2000/svg">
<path fill-rule="evenodd" clip-rule="evenodd" d="M79.251 5.66545C78.7306 5.55364 78.2102 5.47909 77.6898 5.40455L83.4514 0H76.3888L73.5266 4.36091L72.7088 3.20545H69.6607L72.2256 5.51636C64.7169 6.63455 58.472 11.89 56.9852 19.1955C56.0559 23.6682 56.725 27.9173 58.6207 31.4955C59.6615 33.3964 61.1112 35.1482 62.8583 36.7136C62.8583 36.7136 62.8583 36.7136 62.8211 36.7136C65.0886 38.6145 67.8765 39.9936 71.0361 40.6273C71.8167 40.7764 72.5973 40.8882 73.3407 40.9255C74.3815 40.9627 74.8647 40.9627 75.4223 40.9627C83.8603 40.6273 91.7035 34.6636 93.3391 26.5755C95.3092 17.0336 89.5476 7.71545 79.251 5.66545Z" fill="white"/>
<path fill-rule="evenodd" clip-rule="evenodd" d="M57.1699 22.8481C57.1699 13.5672 64.6786 6.03809 73.9344 6.03809C83.1901 6.03809 90.6988 13.5672 90.6988 22.8481C90.6988 32.129 83.1901 39.6581 73.9344 39.6581C64.6786 39.6581 57.1699 32.129 57.1699 22.8481Z" fill="white"/>
<path fill-rule="evenodd" clip-rule="evenodd" d="M59.2891 22.8853C59.2891 14.4617 65.98 7.64079 74.3064 7.37988C82.6329 7.64079 89.3238 14.4617 89.3238 22.8853C89.3238 31.309 82.6329 38.1299 74.3064 38.3908C65.98 38.1299 59.2891 31.2717 59.2891 22.8853Z" fill="#F3E03A"/>
<path fill-rule="evenodd" clip-rule="evenodd" d="M59.437 22.8853C59.437 16.1762 63.6746 10.4735 69.6221 8.3117C71.1833 7.75261 72.7817 7.45443 74.4544 7.37988H74.0083C65.4589 7.37988 58.5449 14.3126 58.5449 22.8853C58.5449 31.4581 65.4589 38.3908 74.0083 38.3908H74.4544C66.128 38.1299 59.437 31.2717 59.437 22.8853Z" fill="black"/>
<path fill-rule="evenodd" clip-rule="evenodd" d="M84.4909 37.2352C84.4909 37.2352 91.7394 32.9488 91.7394 22.5497C91.7394 13.8279 84.937 8.53517 82.9297 7.64062C83.5616 7.64062 92.7802 12.1879 92.7802 22.5497C92.7802 32.9115 84.8254 37.2352 84.8254 37.2352H84.4909Z" fill="#F3E03A"/>
<path fill-rule="evenodd" clip-rule="evenodd" d="M77.132 14.8721C77.0205 14.7975 76.6859 14.6857 76.3514 14.6857C75.9425 14.723 75.4221 14.9466 75.1991 14.9093C74.5671 14.7975 75.4221 13.903 76.7231 14.2012C77.0948 14.2757 77.3922 14.4993 77.6152 14.7975C77.7639 14.9466 77.7267 15.0584 77.6896 15.0957C77.6152 15.2448 77.2435 14.9466 77.132 14.8721Z" fill="black"/>
<path fill-rule="evenodd" clip-rule="evenodd" d="M69.7332 14.7969C69.696 14.7596 69.696 14.6478 69.8075 14.4987C70.0677 14.2005 70.3651 13.9769 70.6996 13.9023C71.9635 13.6041 72.8556 14.4987 72.2237 14.6105C72.0006 14.6478 71.4802 14.4241 71.0713 14.3869C70.7368 14.3496 70.4394 14.4614 70.2907 14.5732C70.1792 14.6105 69.8075 14.9087 69.7332 14.7969Z" fill="black"/>
<path fill-rule="evenodd" clip-rule="evenodd" d="M75.9794 19.3446C75.8308 19.3446 75.7192 19.3446 75.5706 19.3073C74.6041 19.0837 74.0093 18.1146 74.2324 17.1828C74.4182 16.3628 75.1245 15.8037 75.9794 15.8037C76.1281 15.8037 76.2396 15.8037 76.3883 15.841C77.3548 16.0646 77.9495 17.0337 77.7265 18.0028C77.5407 18.7855 76.7972 19.3446 75.9794 19.3446Z" fill="black"/>
<path fill-rule="evenodd" clip-rule="evenodd" d="M71.0732 18.8974C70.9245 18.8974 70.813 18.8974 70.6643 18.8601C69.6978 18.6364 69.1031 17.6674 69.3261 16.7355C69.512 15.9155 70.2182 15.3564 71.0732 15.3564C71.2219 15.3564 71.3334 15.3564 71.4821 15.3937C72.4485 15.6174 73.0433 16.5864 72.8203 17.5183C72.6344 18.3383 71.9281 18.8974 71.0732 18.8974Z" fill="black"/>
<path fill-rule="evenodd" clip-rule="evenodd" d="M66.9085 24.7114C66.7599 24.6368 66.8342 24.2268 67.2431 24.4132C68.2096 24.7487 70.7372 25.8296 73.0791 25.3078C75.458 24.7487 78.1716 22.6987 78.6548 22.2887C79.1009 21.8787 79.4354 21.5805 79.5841 21.4314C79.7328 21.3196 80.1789 21.3568 79.8443 21.8787C79.5098 22.3632 78.7292 23.6678 78.3574 24.3387C77.5397 25.7923 76.3873 29.2959 73.4508 29.9296C70.0681 30.675 69.6964 26.575 68.8787 25.9041C68.0609 25.1959 67.0572 24.7487 66.9085 24.7114Z" fill="black"/>
<path fill-rule="evenodd" clip-rule="evenodd" d="M70.7383 28.4768C70.7383 28.2531 70.9985 27.8431 71.4074 27.7313C72.0765 27.5077 72.8571 28.0295 72.8571 28.2531C72.9686 27.8431 73.6748 27.694 74.1209 27.7686C74.567 27.8431 75.1989 28.2531 75.0502 28.9986C74.8643 29.1477 74.1952 29.595 72.9686 29.595C71.5932 29.6322 70.9613 28.8868 70.7383 28.4768Z" fill="white"/>
<path fill-rule="evenodd" clip-rule="evenodd" d="M75.9422 17.2948C75.9422 17.4066 75.8678 17.4811 75.7191 17.4811C75.6076 17.4811 75.4961 17.4066 75.4961 17.2948C75.4961 17.1829 75.5704 17.1084 75.7191 17.1084C75.8678 17.1084 75.9422 17.1829 75.9422 17.2948Z" fill="white"/>
<path fill-rule="evenodd" clip-rule="evenodd" d="M76.2389 16.3625C76.1645 16.3252 76.053 16.3252 75.9415 16.3252C75.3468 16.3252 74.8635 16.7352 74.7148 17.2943V17.3688C74.8635 16.9588 75.3096 16.7352 75.7185 16.8097C76.2017 16.9216 76.4991 17.4061 76.3876 17.8907C76.2761 18.3752 75.7928 18.7107 75.3096 18.5988C75.2724 18.5988 75.1981 18.5616 75.1609 18.5616C75.3096 18.6734 75.4583 18.7479 75.6441 18.7852C75.7185 18.8225 75.83 18.8225 75.9415 18.8225C76.5363 18.8225 77.0195 18.4125 77.1682 17.8534C77.354 17.1825 76.908 16.5116 76.2389 16.3625Z" fill="white"/>
<path fill-rule="evenodd" clip-rule="evenodd" d="M70.8855 16.8475C70.8855 16.9593 70.8112 17.0339 70.6625 17.0339C70.551 17.0339 70.4395 16.9593 70.4395 16.8475C70.4395 16.7357 70.5138 16.6611 70.6625 16.6611C70.774 16.6611 70.8855 16.7357 70.8855 16.8475Z" fill="white"/>
<path fill-rule="evenodd" clip-rule="evenodd" d="M70.5147 18.2261C70.6262 18.2634 70.7006 18.3007 70.8121 18.3379C70.8864 18.3752 70.998 18.3752 71.0723 18.3752C71.6299 18.3752 72.1503 17.9652 72.299 17.4061C72.4477 16.7352 72.0388 16.0643 71.3697 15.9152C71.2953 15.8779 71.1838 15.8779 71.0723 15.8779C70.5519 15.8779 70.0687 16.2134 69.8828 16.7352C70.1058 16.4743 70.4032 16.3625 70.7378 16.437C71.221 16.5488 71.5184 17.0334 71.4068 17.5179C71.3325 17.9652 70.9236 18.2634 70.5147 18.2261Z" fill="white"/>
<path fill-rule="evenodd" clip-rule="evenodd" d="M26.9867 7.34277L16.021 19.8664L26.5406 38.4655H19.3665L11.6719 24.9355L6.20768 31.16V38.4655H0V7.34277H6.20768V22.5873L19.5895 7.34277H26.9867ZM49.1038 27.06L55.3859 38.4655H48.2489L42.7475 28.2155H35.6105V38.4655H29.4028V7.34277H40.0339C44.4945 7.34277 47.4683 7.38005 50.4048 9.72823C52.4865 11.4055 54.0848 14.0519 54.0848 17.9282C54.122 23.7428 49.1038 27.06 49.1038 27.06ZM47.7657 17.891C47.7657 17.1828 47.7285 14.7228 45.1265 13.4182C43.7883 12.7473 42.1899 12.71 38.5099 12.71H35.6105V23.1091H37.8036C39.9224 23.1091 40.7402 23.0719 41.9297 22.9973C43.2679 22.96 47.7657 22.7364 47.7657 17.891ZM117.388 30.8246L102.631 7.34277H97.0182V38.4655H103.077L102.743 17.2573L116.05 38.4655H122.815V7.34277H116.608L117.388 30.8246ZM177.644 7.34277L178.387 30.8246L163.63 7.34277H158.017V38.4655H164.076L163.741 17.2573L177.049 38.4655H183.814V7.34277H177.644ZM143.855 7.34277L154.523 38.4655H147.943L146.642 34.0673H134.116L132.815 38.4655H126.235L136.792 7.34277H143.855ZM145.007 28.6628L140.398 13.381L135.751 28.6628H145.007Z" fill="white"/>
</svg>
