<?xml version="1.0" encoding="UTF-8"?>
<svg width="196.91mm" height="56.686mm" version="1.1" viewBox="0 0 196.91 56.686" xmlns="http://www.w3.org/2000/svg" xmlns:cc="http://creativecommons.org/ns#" xmlns:dc="http://purl.org/dc/elements/1.1/" xmlns:rdf="http://www.w3.org/1999/02/22-rdf-syntax-ns#">

 <g transform="translate(-7.3775 -112.04)" fill="#0060a0" shape-rendering="auto">
  <path d="m30.888 127.17c-4.833 0-8.713 1.4975-11.708 4.4926v-3.3354h-9.8021v37.166h9.8702v-16.473c0-8.5769 3.0632-12.797 9.2576-12.797 2.3144 0 4.0842 0.81684 5.4456 2.3824 1.3614 1.5656 2.0421 3.6758 2.0421 6.3305v20.557h9.8702v-22.667c0-4.6288-1.3614-8.3727-4.0842-11.3-2.7228-2.927-6.3986-4.3565-10.891-4.3565z" color="#000000" color-rendering="auto" dominant-baseline="auto" image-rendering="auto" solid-color="#000000" stop-color="#000000" style="font-feature-settings:normal;font-variant-alternates:normal;font-variant-caps:normal;font-variant-east-asian:normal;font-variant-ligatures:normal;font-variant-numeric:normal;font-variant-position:normal;font-variation-settings:normal;inline-size:0;isolation:auto;mix-blend-mode:normal;shape-margin:0;shape-padding:0;text-decoration-color:#000000;text-decoration-line:none;text-decoration-style:solid;text-indent:0;text-orientation:mixed;text-transform:none;white-space:normal"/>
  <path d="m71.526 127.17c-5.4456 0-10.006 1.8379-13.682 5.5818-3.6758 3.6758-5.5818 8.4407-5.5818 14.227 0 5.786 1.8379 10.483 5.5137 14.159 3.6758 3.6758 8.1684 5.5137 13.546 5.5137 4.1523 0 7.8281-0.95297 10.959-2.927 3.1312-1.906 5.5137-4.7649 7.0793-8.5769l-8.7811-1.8379c-1.906 3.2674-5.0372 4.9011-9.2576 4.9011-2.3144 0-4.2884-0.81685-5.9902-2.3144-1.7018-1.5656-2.7909-3.6758-3.3354-6.3306h28.317v-3.3354c-0.20428-5.5818-2.1102-10.142-5.786-13.682-3.5397-3.6077-7.8962-5.3776-13.001-5.3776zm-9.1895 15.452c0.54456-2.1783 1.7018-3.88 3.4716-5.0372 1.7698-1.2253 3.6758-1.7698 5.7179-1.7698 2.1102 0 3.9481 0.54454 5.5137 1.7018 1.5656 1.1572 2.6547 2.859 3.2674 5.1733h-17.971z" color="#000000" color-rendering="auto" dominant-baseline="auto" image-rendering="auto" solid-color="#000000" stop-color="#000000" style="font-feature-settings:normal;font-variant-alternates:normal;font-variant-caps:normal;font-variant-east-asian:normal;font-variant-ligatures:normal;font-variant-numeric:normal;font-variant-position:normal;font-variation-settings:normal;inline-size:0;isolation:auto;mix-blend-mode:normal;shape-margin:0;shape-padding:0;text-decoration-color:#000000;text-decoration-line:none;text-decoration-style:solid;text-indent:0;text-orientation:mixed;text-transform:none;white-space:normal"/>
  <path d="m115.91 157.46c-3.6077 0-5.4456-2.1102-5.4456-6.3986v-14.703h12.116v-8.0323h-12.116v-11.3h-9.8702v11.232h-7.9642v8.0323h7.9642v15.452c0 4.9691 1.2933 8.713 3.88 11.164 2.5866 2.4505 6.1944 3.6758 10.755 3.6758 3.0632 0 6.2624-0.95297 9.666-2.7909l-2.859-8.1684c-2.1782 1.2253-4.2884 1.8379-6.1263 1.8379z" color="#000000" color-rendering="auto" dominant-baseline="auto" image-rendering="auto" solid-color="#000000" stop-color="#000000" style="font-feature-settings:normal;font-variant-alternates:normal;font-variant-caps:normal;font-variant-east-asian:normal;font-variant-ligatures:normal;font-variant-numeric:normal;font-variant-position:normal;font-variation-settings:normal;inline-size:0;isolation:auto;mix-blend-mode:normal;shape-margin:0;shape-padding:0;text-decoration-color:#000000;text-decoration-line:none;text-decoration-style:solid;text-indent:0;text-orientation:mixed;text-transform:none;white-space:normal"/>
  <path d="m148.24 157.46c-3.6078 0-5.4456-2.1102-5.4456-6.3986v-14.703h12.116v-8.0323h-12.116v-11.3h-9.8702v11.232h-7.9642v8.0323h7.9642v15.452c0 4.9691 1.2933 8.713 3.88 11.164 2.5867 2.4505 6.1944 3.6758 10.755 3.6758 3.0632 0 6.2625-0.95297 9.666-2.7909l-2.859-8.1684c-2.1783 1.2253-4.2204 1.8379-6.1263 1.8379z" color="#000000" color-rendering="auto" dominant-baseline="auto" image-rendering="auto" solid-color="#000000" stop-color="#000000" style="font-feature-settings:normal;font-variant-alternates:normal;font-variant-caps:normal;font-variant-east-asian:normal;font-variant-ligatures:normal;font-variant-numeric:normal;font-variant-position:normal;font-variation-settings:normal;inline-size:0;isolation:auto;mix-blend-mode:normal;shape-margin:0;shape-padding:0;text-decoration-color:#000000;text-decoration-line:none;text-decoration-style:solid;text-indent:0;text-orientation:mixed;text-transform:none;white-space:normal"/>
  <path d="m182.41 127.24c-0.0682-0.74877-0.1361-1.4976-0.20427-2.1783 2.859 0.20428 9.666 0.61265 13.206-0.40842 5.6498-1.5656 6.3305-10.619 6.3305-10.619s-9.734 0.88492-15.18 3.3354c-2.7909 1.2933-4.2204 3.2674-4.9691 4.9011-1.1572-3.4035-5.1053-7.76-5.1053-7.76l-2.1783 2.927s2.927 2.1102 5.2414 5.786c0.54457 0.81684 0.88492 2.4505 1.0891 4.0161h-0.74877c-14.907 0-21.51 8.3726-21.51 16.065 0 7.6239 3.812 23.416 21.51 23.416 17.698 0 22.395-12.865 22.395-23.416 0.0682-10.006-6.6028-15.452-19.877-16.065zm-2.1783 30.972c-6.9432 0-10.211-5.3095-10.211-8.713 0-3.4035 0.81684-7.9642 10.483-7.9642 9.666 0 10.415 4.0842 10.415 7.6919 0 3.4716-3.6758 8.9853-10.687 8.9853z" color="#000000" color-rendering="auto" dominant-baseline="auto" image-rendering="auto" solid-color="#000000" stop-color="#000000" style="font-feature-settings:normal;font-variant-alternates:normal;font-variant-caps:normal;font-variant-east-asian:normal;font-variant-ligatures:normal;font-variant-numeric:normal;font-variant-position:normal;font-variation-settings:normal;inline-size:0;isolation:auto;mix-blend-mode:normal;shape-margin:0;shape-padding:0;text-decoration-color:#000000;text-decoration-line:none;text-decoration-style:solid;text-indent:0;text-orientation:mixed;text-transform:none;white-space:normal"/>
 </g>
</svg>
